<?xml version="1.0" encoding="UTF-8" standalone="no"?>
<!-- Created with matplotlib (https://matplotlib.org/) -->

<svg
   xmlns:dc="http://purl.org/dc/elements/1.1/"
   xmlns:cc="http://creativecommons.org/ns#"
   xmlns:rdf="http://www.w3.org/1999/02/22-rdf-syntax-ns#"
   xmlns:svg="http://www.w3.org/2000/svg"
   xmlns="http://www.w3.org/2000/svg"
   xmlns:xlink="http://www.w3.org/1999/xlink"
   xmlns:sodipodi="http://sodipodi.sourceforge.net/DTD/sodipodi-0.dtd"
   xmlns:inkscape="http://www.inkscape.org/namespaces/inkscape"
   height="181.33334pt"
   version="1.1"
   viewBox="0 0 579.15271 181.33334"
   width="579.15271pt"
   id="svg164"
   sodipodi:docname="fig2_20200130.svg"
   inkscape:version="0.92.4 (5da689c313, 2019-01-14)">
  <metadata
     id="metadata168">
    <rdf:RDF>
      <cc:Work
         rdf:about="">
        <dc:format>image/svg+xml</dc:format>
        <dc:type
           rdf:resource="http://purl.org/dc/dcmitype/StillImage" />
        <dc:title />
      </cc:Work>
    </rdf:RDF>
  </metadata>
  <sodipodi:namedview
     pagecolor="#ffffff"
     bordercolor="#666666"
     borderopacity="1"
     objecttolerance="10"
     gridtolerance="10"
     guidetolerance="10"
     inkscape:pageopacity="0"
     inkscape:pageshadow="2"
     inkscape:window-width="1850"
     inkscape:window-height="1016"
     id="namedview166"
     showgrid="false"
     fit-margin-top="0"
     fit-margin-left="0"
     fit-margin-right="0"
     fit-margin-bottom="0"
     inkscape:zoom="0.85442069"
     inkscape:cx="506.98424"
     inkscape:cy="171.53459"
     inkscape:window-x="70"
     inkscape:window-y="27"
     inkscape:window-maximized="1"
     inkscape:current-layer="figure_1" />
  <defs
     id="defs4"
     style="stroke-linecap:butt;stroke-linejoin:round">
    <style
       type="text/css"
       id="style2">
*{stroke-linecap:butt;stroke-linejoin:round;}
  </style>
    <path
       inkscape:connector-curvature="0"
       d="M 64.40625,67.28125 V 56.890625 q -4.984375,4.640625 -10.625,6.921875 -5.640625,2.296875 -11.984375,2.296875 -12.5,0 -19.140625,-7.640625 -6.640625,-7.640625 -6.640625,-22.09375 0,-14.40625 6.640625,-22.046875 Q 29.296875,6.6875 41.796875,6.6875 q 6.34375,0 11.984375,2.296875 5.640625,2.296875 10.625,6.9375 V 5.609375 Q 59.234375,2.09375 53.4375,0.328125 q -5.78125,-1.75 -12.21875,-1.75 -16.5625,0 -26.09375,10.125 Q 5.609375,18.84375 5.609375,36.375 q 0,17.578125 9.515625,27.703125 9.53125,10.140625 26.09375,10.140625 6.53125,0 12.3125,-1.734375 5.796875,-1.734375 10.875,-5.203125 z"
       id="DejaVuSans-67-7"
       style="stroke-linecap:butt;stroke-linejoin:round" />
    <path
       inkscape:connector-curvature="0"
       d="M 54.890625,33.015625 V 0 H 45.90625 v 32.71875 q 0,7.765625 -3.03125,11.609375 -3.03125,3.859375 -9.078125,3.859375 -7.28125,0 -11.484375,-4.640625 -4.203125,-4.625 -4.203125,-12.640625 V 0 h -9.03125 v 75.984375 h 9.03125 V 46.1875 q 3.234375,4.9375 7.59375,7.375 4.375,2.4375 10.09375,2.4375 9.421875,0 14.25,-5.828125 4.84375,-5.828125 4.84375,-17.15625 z"
       id="DejaVuSans-104-0"
       style="stroke-linecap:butt;stroke-linejoin:round" />
    <path
       inkscape:connector-curvature="0"
       d="M 9.421875,75.984375 H 18.40625 V 0 H 9.421875 Z"
       id="DejaVuSans-108"
       style="stroke-linecap:butt;stroke-linejoin:round" />
    <path
       inkscape:connector-curvature="0"
       d="M 9.421875,54.6875 H 18.40625 V 0 H 9.421875 Z m 0,21.296875 H 18.40625 V 64.59375 H 9.421875 Z"
       id="DejaVuSans-105-9"
       style="stroke-linecap:butt;stroke-linejoin:round" />
    <path
       inkscape:connector-curvature="0"
       d="M 48.78125,52.59375 V 44.1875 q -3.8125,2.109375 -7.640625,3.15625 -3.828125,1.046875 -7.734375,1.046875 -8.75,0 -13.59375,-5.546875 -4.828125,-5.53125 -4.828125,-15.546875 0,-10.015625 4.828125,-15.5625 4.84375,-5.53125 13.59375,-5.53125 3.90625,0 7.734375,1.046875 3.828125,1.046875 7.640625,3.15625 v -8.3125 q -3.765625,-1.75 -7.796875,-2.625 -4.015625,-0.890625 -8.5625,-0.890625 -12.359375,0 -19.640625,7.765625 -7.265625,7.765625 -7.265625,20.953125 0,13.375 7.34375,21.03125 Q 20.21875,56 33.015625,56 q 4.140625,0 8.09375,-0.859375 3.953125,-0.84375 7.671875,-2.546875 z"
       id="DejaVuSans-99-3"
       style="stroke-linecap:butt;stroke-linejoin:round" />
    <path
       inkscape:connector-curvature="0"
       d="m 41.109375,46.296875 q -1.515625,0.875 -3.296875,1.28125 Q 36.03125,48 33.890625,48 26.265625,48 22.1875,43.046875 18.109375,38.09375 18.109375,28.8125 V 0 h -9.03125 v 54.6875 h 9.03125 v -8.5 q 2.84375,4.984375 7.375,7.390625 Q 30.03125,56 36.53125,56 q 0.921875,0 2.046875,-0.125 1.125,-0.109375 2.484375,-0.359375 z"
       id="DejaVuSans-114-6"
       style="stroke-linecap:butt;stroke-linejoin:round" />
    <path
       inkscape:connector-curvature="0"
       d="m 34.28125,27.484375 q -10.890625,0 -15.09375,-2.484375 -4.203125,-2.484375 -4.203125,-8.5 0,-4.78125 3.15625,-7.59375 3.15625,-2.796875 8.5625,-2.796875 7.484375,0 12,5.296875 4.515625,5.296875 4.515625,14.078125 v 2 z m 17.921875,3.71875 V 0 H 43.21875 v 8.296875 q -3.078125,-4.96875 -7.671875,-7.34375 -4.59375,-2.375 -11.234375,-2.375 -8.390625,0 -13.359375,4.71875 Q 6,8.015625 6,15.921875 q 0,9.21875 6.171875,13.90625 6.1875,4.6875 18.4375,4.6875 H 43.21875 v 0.890625 q 0,6.203125 -4.078125,9.59375 -4.078125,3.390625 -11.453125,3.390625 -4.6875,0 -9.140625,-1.125 -4.4375,-1.125 -8.53125,-3.375 v 8.3125 q 4.921875,1.90625 9.5625,2.84375 Q 24.21875,56 28.609375,56 q 11.875,0 17.734375,-6.15625 5.859375,-6.140625 5.859375,-18.640625 z"
       id="DejaVuSans-97"
       style="stroke-linecap:butt;stroke-linejoin:round" />
    <path
       inkscape:connector-curvature="0"
       d="M 18.3125,70.21875 V 54.6875 h 18.5 v -6.984375 h -18.5 v -29.6875 q 0,-6.6875 1.828125,-8.59375 1.828125,-1.90625 7.453125,-1.90625 H 36.8125 V 0 H 27.59375 Q 17.1875,0 13.234375,3.875 9.28125,7.765625 9.28125,18.015625 v 29.6875 H 2.6875 V 54.6875 h 6.59375 v 15.53125 z"
       id="DejaVuSans-116"
       style="stroke-linecap:butt;stroke-linejoin:round" />
    <path
       inkscape:connector-curvature="0"
       d="M 8.5,21.578125 V 54.6875 h 8.984375 V 21.921875 q 0,-7.765625 3.015625,-11.65625 3.03125,-3.875 9.09375,-3.875 7.265625,0 11.484375,4.640625 4.234375,4.640625 4.234375,12.65625 v 31 h 8.984375 V 0 H 45.3125 V 8.40625 Q 42.046875,3.421875 37.71875,1 33.40625,-1.421875 27.6875,-1.421875 18.265625,-1.421875 13.375,4.4375 8.5,10.296875 8.5,21.578125 Z M 31.109375,56 Z"
       id="DejaVuSans-117"
       style="stroke-linecap:butt;stroke-linejoin:round" />
    <path
       inkscape:connector-curvature="0"
       d="m 44.28125,53.078125 v -8.5 Q 40.484375,46.53125 36.375,47.5 q -4.09375,0.984375 -8.5,0.984375 -6.6875,0 -10.03125,-2.046875 Q 14.5,44.390625 14.5,40.28125 q 0,-3.125 2.390625,-4.90625 2.390625,-1.78125 9.625,-3.390625 l 3.078125,-0.6875 Q 39.15625,29.25 43.1875,25.515625 47.21875,21.78125 47.21875,15.09375 q 0,-7.625 -6.03125,-12.078125 -6.03125,-4.4375 -16.578125,-4.4375 -4.390625,0 -9.15625,0.859375 Q 10.6875,0.296875 5.421875,2 v 9.28125 q 4.984375,-2.59375 9.8125,-3.890625 4.828125,-1.28125 9.578125,-1.28125 6.34375,0 9.75,2.171875 3.421875,2.171875 3.421875,6.125 0,3.65625 -2.46875,5.609375 -2.453125,1.953125 -10.8125,3.765625 l -3.125,0.734375 q -8.34375,1.75 -12.0625,5.390625 -3.703125,3.640625 -3.703125,9.984375 0,7.71875 5.46875,11.90625 Q 16.75,56 26.8125,56 q 4.96875,0 9.359375,-0.734375 4.40625,-0.71875 8.109375,-2.1875 z"
       id="DejaVuSans-115-6"
       style="stroke-linecap:butt;stroke-linejoin:round" />
    <path
       inkscape:connector-curvature="0"
       d="m 9.8125,72.90625 h 9.859375 V 43.015625 h 35.84375 V 72.90625 H 65.375 V 0 H 55.515625 V 34.71875 H 19.671875 V 0 H 9.8125 Z"
       id="DejaVuSans-72"
       style="stroke-linecap:butt;stroke-linejoin:round" />
    <path
       inkscape:connector-curvature="0"
       d="M 54.890625,54.6875 35.109375,28.078125 55.90625,0 H 45.3125 L 29.390625,21.484375 13.484375,0 H 2.875 L 24.125,28.609375 4.6875,54.6875 h 10.59375 l 14.5,-19.484375 14.5,19.484375 z"
       id="DejaVuSans-120"
       style="stroke-linecap:butt;stroke-linejoin:round" />
    <path
       inkscape:connector-curvature="0"
       d="m 18.109375,8.203125 v -29 H 9.078125 V 54.6875 h 9.03125 v -8.296875 q 2.84375,4.875 7.15625,7.234375 Q 29.59375,56 35.59375,56 q 9.96875,0 16.1875,-7.90625 6.234375,-7.90625 6.234375,-20.796875 0,-12.890625 -6.234375,-20.8125 -6.21875,-7.90625 -16.1875,-7.90625 -6,0 -10.328125,2.375 -4.3125,2.375 -7.15625,7.25 z M 48.6875,27.296875 q 0,9.90625 -4.078125,15.546875 -4.078125,5.640625 -11.203125,5.640625 -7.140625,0 -11.21875,-5.640625 -4.078125,-5.640625 -4.078125,-15.546875 0,-9.90625 4.078125,-15.546875 4.078125,-5.640625 11.21875,-5.640625 7.125,0 11.203125,5.640625 4.078125,5.640625 4.078125,15.546875 z"
       id="DejaVuSans-112-7"
       style="stroke-linecap:butt;stroke-linejoin:round" />
    <path
       inkscape:connector-curvature="0"
       d="m 45.40625,46.390625 v 29.59375 h 8.984375 V 0 H 45.40625 v 8.203125 q -2.828125,-4.875 -7.15625,-7.25 -4.3125,-2.375 -10.375,-2.375 -9.90625,0 -16.140625,7.90625 -6.21875,7.921875 -6.21875,20.8125 0,12.890625 6.21875,20.796875 Q 17.96875,56 27.875,56 q 6.0625,0 10.375,-2.375 4.328125,-2.359375 7.15625,-7.234375 z M 14.796875,27.296875 q 0,-9.90625 4.078125,-15.546875 4.078125,-5.640625 11.203125,-5.640625 7.125,0 11.21875,5.640625 4.109375,5.640625 4.109375,15.546875 0,9.90625 -4.109375,15.546875 -4.09375,5.640625 -11.21875,5.640625 -7.125,0 -11.203125,-5.640625 -4.078125,-5.640625 -4.078125,-15.546875 z"
       id="DejaVuSans-100-9"
       style="stroke-linecap:butt;stroke-linejoin:round" />
    <path
       inkscape:connector-curvature="0"
       d="M 9.8125,72.90625 H 24.515625 L 43.109375,23.296875 61.8125,72.90625 H 76.515625 V 0 h -9.625 v 64.015625 l -18.796875,-50 H 38.1875 l -18.796875,50 V 0 H 9.8125 Z"
       id="DejaVuSans-77"
       style="stroke-linecap:butt;stroke-linejoin:round" />
    <path
       inkscape:connector-curvature="0"
       d="M 32.171875,-5.078125 Q 28.375,-14.84375 24.75,-17.8125 q -3.609375,-2.984375 -9.65625,-2.984375 h -7.1875 v 7.515625 h 5.28125 q 3.703125,0 5.75,1.765625 2.0625,1.75 4.546875,8.296875 L 25.09375,0.875 2.984375,54.6875 H 12.5 L 29.59375,11.921875 46.6875,54.6875 h 9.515625 z"
       id="DejaVuSans-121"
       style="stroke-linecap:butt;stroke-linejoin:round" />
  </defs>
  <g
     id="figure_1"
     style="stroke-linecap:butt;stroke-linejoin:round"
     transform="translate(180.60721,-100.39523)">
    <g
       id="g573"
       transform="translate(-257.9438,51.472658)"
       style="stroke-linecap:butt;stroke-linejoin:round">
      <g
         id="axes_1"
         style="stroke-linecap:butt;stroke-linejoin:round">
        <g
           id="patch_2"
           style="stroke-linecap:butt;stroke-linejoin:round">
          <path
             id="path9"
             style="fill:#1f77b4;stroke-linecap:butt;stroke-linejoin:round"
             d="m 308.376,143.28 c 0,-8.72313 -1.31231,-17.39683 -3.89282,-25.72953 -2.5805,-8.33271 -6.39996,-16.22999 -11.32998,-23.426369 L 221.4,143.28 Z"
             inkscape:connector-curvature="0" />
        </g>
        <g
           id="patch_3"
           style="stroke-linecap:butt;stroke-linejoin:round">
          <path
             id="path12"
             style="fill:#ff7f0e;stroke-linecap:butt;stroke-linejoin:round"
             d="m 293.1532,94.124101 c -3.64407,-5.319274 -7.86836,-10.216874 -12.59496,-14.602447 -4.72659,-4.385573 -9.92623,-8.231985 -15.503,-11.468275 L 221.4,143.28 Z"
             inkscape:connector-curvature="0" />
        </g>
        <g
           id="patch_4"
           style="stroke-linecap:butt;stroke-linejoin:round">
          <path
             id="path15"
             style="fill:#2ca02c;stroke-linecap:butt;stroke-linejoin:round"
             d="m 265.05524,68.053379 c -4.14385,-2.404742 -8.47931,-4.462984 -12.96214,-6.153708 -4.48282,-1.690725 -9.09769,-3.00816 -13.79748,-3.938852 L 221.4,143.28 Z"
             inkscape:connector-curvature="0" />
        </g>
        <g
           id="patch_5"
           style="stroke-linecap:butt;stroke-linejoin:round">
          <path
             id="path18"
             style="fill:#d62728;stroke-linecap:butt;stroke-linejoin:round"
             d="m 238.29562,57.960819 c -22.53466,-4.4625 -45.94416,0.179699 -65.07065,12.903771 -19.12648,12.724073 -32.45387,32.52144 -37.04571,55.03009 -4.59185,22.50865 -0.0842,45.94443 12.52986,65.14367 12.61402,19.19925 32.33452,32.64011 54.81643,37.36114 L 221.4,143.28 Z"
             inkscape:connector-curvature="0" />
        </g>
        <g
           id="patch_6"
           style="stroke-linecap:butt;stroke-linejoin:round">
          <path
             id="path21"
             style="fill:#9467bd;stroke-linecap:butt;stroke-linejoin:round"
             d="m 203.52555,228.39949 c 12.66198,2.65893 25.75916,2.45934 38.33425,-0.58417 12.57509,-3.0435 24.31405,-8.85492 34.35888,-17.0095 10.04483,-8.15458 18.14469,-18.44867 23.70754,-30.12987 5.56285,-11.6812 8.44978,-24.4578 8.44978,-37.39595 H 221.4 Z"
             inkscape:connector-curvature="0" />
        </g>
        <g
           id="matplotlib.axis_1"
           style="stroke-linecap:butt;stroke-linejoin:round" />
        <g
           id="text_2"
           style="stroke-linecap:butt;stroke-linejoin:round">
          <!-- Acari -->
          <defs
             id="defs50">
            <path
               id="DejaVuSans-65"
               d="M 34.1875,63.1875 20.796875,26.90625 h 26.8125 z m -5.578125,9.71875 h 11.1875 L 67.578125,0 h -10.25 L 50.6875,18.703125 H 17.828125 L 11.1875,0 H 0.78125 Z"
               inkscape:connector-curvature="0"
               style="stroke-linecap:butt;stroke-linejoin:round" />
            <path
               id="DejaVuSans-99"
               d="M 48.78125,52.59375 V 44.1875 q -3.8125,2.109375 -7.640625,3.15625 -3.828125,1.046875 -7.734375,1.046875 -8.75,0 -13.59375,-5.546875 -4.828125,-5.53125 -4.828125,-15.546875 0,-10.015625 4.828125,-15.5625 4.84375,-5.53125 13.59375,-5.53125 3.90625,0 7.734375,1.046875 3.828125,1.046875 7.640625,3.15625 v -8.3125 q -3.765625,-1.75 -7.796875,-2.625 -4.015625,-0.890625 -8.5625,-0.890625 -12.359375,0 -19.640625,7.765625 -7.265625,7.765625 -7.265625,20.953125 0,13.375 7.34375,21.03125 Q 20.21875,56 33.015625,56 q 4.140625,0 8.09375,-0.859375 3.953125,-0.84375 7.671875,-2.546875 z"
               inkscape:connector-curvature="0"
               style="stroke-linecap:butt;stroke-linejoin:round" />
            <path
               id="DejaVuSans-114"
               d="m 41.109375,46.296875 q -1.515625,0.875 -3.296875,1.28125 Q 36.03125,48 33.890625,48 26.265625,48 22.1875,43.046875 18.109375,38.09375 18.109375,28.8125 V 0 h -9.03125 v 54.6875 h 9.03125 v -8.5 q 2.84375,4.984375 7.375,7.390625 Q 30.03125,56 36.53125,56 q 0.921875,0 2.046875,-0.125 1.125,-0.109375 2.484375,-0.359375 z"
               inkscape:connector-curvature="0"
               style="stroke-linecap:butt;stroke-linejoin:round" />
            <path
               id="DejaVuSans-105"
               d="M 9.421875,54.6875 H 18.40625 V 0 H 9.421875 Z m 0,21.296875 H 18.40625 V 64.59375 H 9.421875 Z"
               inkscape:connector-curvature="0"
               style="stroke-linecap:butt;stroke-linejoin:round" />
          </defs>
          <g
             id="g62"
             transform="matrix(0.1,0,0,-0.1,312.7915,117.73689)"
             style="stroke-linecap:butt;stroke-linejoin:round">
            <use
               id="use52"
               xlink:href="#DejaVuSans-65"
               style="stroke-linecap:butt;stroke-linejoin:round"
               x="0"
               y="0"
               width="100%"
               height="100%" />
            <use
               id="use54"
               xlink:href="#DejaVuSans-99"
               x="68.392578"
               style="stroke-linecap:butt;stroke-linejoin:round"
               y="0"
               width="100%"
               height="100%" />
            <path
               style="stroke-linecap:butt;stroke-linejoin:round"
               inkscape:connector-curvature="0"
               d="m 157.6543,27.484375 q -10.89063,0 -15.09375,-2.484375 -4.20313,-2.484375 -4.20313,-8.5 0,-4.78125 3.15625,-7.59375 3.15625,-2.796875 8.5625,-2.796875 7.48438,0 12,5.296875 4.51563,5.296875 4.51563,14.078125 v 2 z m 17.92187,3.71875 V 0 h -8.98437 v 8.296875 q -3.07813,-4.96875 -7.67188,-7.34375 -4.59375,-2.375 -11.23437,-2.375 -8.39063,0 -13.35938,4.71875 -4.95312,4.71875 -4.95312,12.625 0,9.21875 6.17187,13.90625 6.1875,4.6875 18.4375,4.6875 h 12.60938 v 0.890625 q 0,6.203125 -4.07813,9.59375 -4.07812,3.390625 -11.45312,3.390625 -4.6875,0 -9.14063,-1.125 -4.4375,-1.125 -8.53125,-3.375 v 8.3125 q 4.92188,1.90625 9.5625,2.84375 Q 147.5918,56 151.98242,56 q 11.875,0 17.73438,-6.15625 5.85937,-6.140625 5.85937,-18.640625 z"
               id="use56" />
            <use
               id="use58"
               xlink:href="#DejaVuSans-114"
               x="184.65234"
               style="stroke-linecap:butt;stroke-linejoin:round"
               y="0"
               width="100%"
               height="100%" />
            <use
               id="use60"
               xlink:href="#DejaVuSans-105"
               x="225.76562"
               style="stroke-linecap:butt;stroke-linejoin:round"
               y="0"
               width="100%"
               height="100%" />
          </g>
        </g>
        <g
           id="text_3"
           style="stroke-linecap:butt;stroke-linejoin:round">
          <!-- Collembola -->
          <defs
             id="defs69">
            <path
               id="DejaVuSans-67"
               d="M 64.40625,67.28125 V 56.890625 q -4.984375,4.640625 -10.625,6.921875 -5.640625,2.296875 -11.984375,2.296875 -12.5,0 -19.140625,-7.640625 -6.640625,-7.640625 -6.640625,-22.09375 0,-14.40625 6.640625,-22.046875 Q 29.296875,6.6875 41.796875,6.6875 q 6.34375,0 11.984375,2.296875 5.640625,2.296875 10.625,6.9375 V 5.609375 Q 59.234375,2.09375 53.4375,0.328125 q -5.78125,-1.75 -12.21875,-1.75 -16.5625,0 -26.09375,10.125 Q 5.609375,18.84375 5.609375,36.375 q 0,17.578125 9.515625,27.703125 9.53125,10.140625 26.09375,10.140625 6.53125,0 12.3125,-1.734375 5.796875,-1.734375 10.875,-5.203125 z"
               inkscape:connector-curvature="0"
               style="stroke-linecap:butt;stroke-linejoin:round" />
            <path
               id="DejaVuSans-101"
               d="m 56.203125,29.59375 v -4.390625 h -41.3125 q 0.59375,-9.28125 5.59375,-14.140625 5,-4.859375 13.9375,-4.859375 5.171875,0 10.03125,1.265625 4.859375,1.265625 9.65625,3.8125 v -8.5 q -4.84375,-2.046875 -9.921875,-3.125 -5.078125,-1.078125 -10.296875,-1.078125 -13.09375,0 -20.734375,7.609375 -7.640625,7.625 -7.640625,20.625 0,13.421875 7.25,21.296875 Q 20.015625,56 32.328125,56 q 11.03125,0 17.453125,-7.109375 6.421875,-7.09375 6.421875,-19.296875 z m -8.984375,2.640625 q -0.09375,7.359375 -4.125,11.75 -4.03125,4.40625 -10.671875,4.40625 -7.515625,0 -12.03125,-4.25 -4.515625,-4.25 -5.203125,-11.96875 z"
               inkscape:connector-curvature="0"
               style="stroke-linecap:butt;stroke-linejoin:round" />
            <path
               id="DejaVuSans-109"
               d="M 52,44.1875 Q 55.375,50.25 60.0625,53.125 64.75,56 71.09375,56 q 8.546875,0 13.1875,-5.984375 4.640625,-5.96875 4.640625,-17 V 0 h -9.03125 v 32.71875 q 0,7.859375 -2.796875,11.65625 -2.78125,3.8125 -8.484375,3.8125 -6.984375,0 -11.046875,-4.640625 -4.046875,-4.625 -4.046875,-12.640625 V 0 h -9.03125 v 32.71875 q 0,7.90625 -2.78125,11.6875 -2.78125,3.78125 -8.59375,3.78125 -6.890625,0 -10.953125,-4.65625 -4.046875,-4.65625 -4.046875,-12.625 V 0 h -9.03125 v 54.6875 h 9.03125 v -8.5 q 3.078125,5.03125 7.375,7.421875 Q 29.78125,56 35.6875,56 41.65625,56 45.828125,52.96875 50,49.953125 52,44.1875 Z"
               inkscape:connector-curvature="0"
               style="stroke-linecap:butt;stroke-linejoin:round" />
            <path
               id="DejaVuSans-98"
               d="m 48.6875,27.296875 q 0,9.90625 -4.078125,15.546875 -4.078125,5.640625 -11.203125,5.640625 -7.140625,0 -11.21875,-5.640625 -4.078125,-5.640625 -4.078125,-15.546875 0,-9.90625 4.078125,-15.546875 4.078125,-5.640625 11.21875,-5.640625 7.125,0 11.203125,5.640625 4.078125,5.640625 4.078125,15.546875 z m -30.578125,19.09375 q 2.84375,4.875 7.15625,7.234375 Q 29.59375,56 35.59375,56 q 9.96875,0 16.1875,-7.90625 6.234375,-7.90625 6.234375,-20.796875 0,-12.890625 -6.234375,-20.8125 -6.21875,-7.90625 -16.1875,-7.90625 -6,0 -10.328125,2.375 -4.3125,2.375 -7.15625,7.25 V 0 h -9.03125 v 75.984375 h 9.03125 z"
               inkscape:connector-curvature="0"
               style="stroke-linecap:butt;stroke-linejoin:round" />
          </defs>
          <g
             id="g91"
             transform="matrix(0.1,0,0,-0.1,286.47407,75.905194)"
             style="stroke-linecap:butt;stroke-linejoin:round">
            <use
               id="use71"
               xlink:href="#DejaVuSans-67"
               style="stroke-linecap:butt;stroke-linejoin:round"
               x="0"
               y="0"
               width="100%"
               height="100%" />
            <path
               style="stroke-linecap:butt;stroke-linejoin:round"
               inkscape:connector-curvature="0"
               d="m 100.43359,48.390625 q -7.218746,0 -11.421871,-5.640625 -4.203125,-5.640625 -4.203125,-15.453125 0,-9.8125 4.171875,-15.453125 4.1875,-5.640625 11.453121,-5.640625 7.1875,0 11.375,5.65625 4.20313,5.671875 4.20313,15.4375 0,9.71875 -4.20313,15.40625 -4.1875,5.6875 -11.375,5.6875 z m 0,7.609375 q 11.71875,0 18.40625,-7.625 6.70313,-7.609375 6.70313,-21.078125 0,-13.421875 -6.70313,-21.078125 -6.6875,-7.640625 -18.40625,-7.640625 -11.765621,0 -18.437496,7.640625 -6.65625,7.65625 -6.65625,21.078125 0,13.46875 6.65625,21.078125 Q 88.667969,56 100.43359,56 Z"
               id="use73" />
            <path
               style="stroke-linecap:butt;stroke-linejoin:round"
               inkscape:connector-curvature="0"
               d="m 140.42773,75.984375 h 8.98438 V 0 h -8.98438 z"
               id="use75" />
            <path
               style="stroke-linecap:butt;stroke-linejoin:round"
               inkscape:connector-curvature="0"
               d="m 168.21094,75.984375 h 8.98437 V 0 h -8.98437 z"
               id="use77" />
            <use
               id="use79"
               xlink:href="#DejaVuSans-101"
               x="186.57227"
               style="stroke-linecap:butt;stroke-linejoin:round"
               y="0"
               width="100%"
               height="100%" />
            <use
               id="use81"
               xlink:href="#DejaVuSans-109"
               x="248.0957"
               style="stroke-linecap:butt;stroke-linejoin:round"
               y="0"
               width="100%"
               height="100%" />
            <use
               id="use83"
               xlink:href="#DejaVuSans-98"
               x="345.50781"
               style="stroke-linecap:butt;stroke-linejoin:round"
               y="0"
               width="100%"
               height="100%" />
            <path
               style="stroke-linecap:butt;stroke-linejoin:round"
               inkscape:connector-curvature="0"
               d="m 439.59375,48.390625 q -7.21875,0 -11.42188,-5.640625 -4.20312,-5.640625 -4.20312,-15.453125 0,-9.8125 4.17187,-15.453125 4.1875,-5.640625 11.45313,-5.640625 7.1875,0 11.375,5.65625 4.20312,5.671875 4.20312,15.4375 0,9.71875 -4.20312,15.40625 -4.1875,5.6875 -11.375,5.6875 z m 0,7.609375 Q 451.3125,56 458,48.375 464.70312,40.765625 464.70312,27.296875 464.70312,13.875 458,6.21875 q -6.6875,-7.640625 -18.40625,-7.640625 -11.76563,0 -18.4375,7.640625 Q 414.5,13.875 414.5,27.296875 q 0,13.46875 6.65625,21.078125 6.67187,7.625 18.4375,7.625 z"
               id="use85" />
            <path
               style="stroke-linecap:butt;stroke-linejoin:round"
               inkscape:connector-curvature="0"
               d="m 479.58789,75.984375 h 8.98438 V 0 h -8.98438 z"
               id="use87" />
            <path
               style="stroke-linecap:butt;stroke-linejoin:round"
               inkscape:connector-curvature="0"
               d="m 532.23047,27.484375 q -10.89063,0 -15.09375,-2.484375 -4.20313,-2.484375 -4.20313,-8.5 0,-4.78125 3.15625,-7.59375 3.15625,-2.796875 8.5625,-2.796875 7.48438,0 12,5.296875 4.51563,5.296875 4.51563,14.078125 v 2 z m 17.92187,3.71875 V 0 h -8.98437 v 8.296875 q -3.07813,-4.96875 -7.67188,-7.34375 -4.59375,-2.375 -11.23437,-2.375 -8.39063,0 -13.35938,4.71875 -4.95312,4.71875 -4.95312,12.625 0,9.21875 6.17187,13.90625 6.1875,4.6875 18.4375,4.6875 h 12.60938 v 0.890625 q 0,6.203125 -4.07813,9.59375 -4.07812,3.390625 -11.45312,3.390625 -4.6875,0 -9.14063,-1.125 -4.4375,-1.125 -8.53125,-3.375 v 8.3125 q 4.92188,1.90625 9.5625,2.84375 Q 522.16797,56 526.55859,56 q 11.875,0 17.73438,-6.15625 5.85937,-6.140625 5.85937,-18.640625 z"
               id="use89" />
          </g>
        </g>
        <g
           id="text_4"
           style="stroke-linecap:butt;stroke-linejoin:round">
          <!-- Formicidae -->
          <defs
             id="defs96">
            <path
               id="DejaVuSans-70"
               d="m 9.8125,72.90625 h 41.890625 v -8.3125 H 19.671875 V 43.109375 h 28.90625 V 34.8125 H 19.671875 V 0 H 9.8125 Z"
               inkscape:connector-curvature="0"
               style="stroke-linecap:butt;stroke-linejoin:round" />
            <path
               id="DejaVuSans-100"
               d="m 45.40625,46.390625 v 29.59375 h 8.984375 V 0 H 45.40625 v 8.203125 q -2.828125,-4.875 -7.15625,-7.25 -4.3125,-2.375 -10.375,-2.375 -9.90625,0 -16.140625,7.90625 -6.21875,7.921875 -6.21875,20.8125 0,12.890625 6.21875,20.796875 Q 17.96875,56 27.875,56 q 6.0625,0 10.375,-2.375 4.328125,-2.359375 7.15625,-7.234375 z M 14.796875,27.296875 q 0,-9.90625 4.078125,-15.546875 4.078125,-5.640625 11.203125,-5.640625 7.125,0 11.21875,5.640625 4.109375,5.640625 4.109375,15.546875 0,9.90625 -4.109375,15.546875 -4.09375,5.640625 -11.21875,5.640625 -7.125,0 -11.203125,-5.640625 -4.078125,-5.640625 -4.078125,-15.546875 z"
               inkscape:connector-curvature="0"
               style="stroke-linecap:butt;stroke-linejoin:round" />
          </defs>
          <g
             id="g118"
             transform="matrix(0.1,0,0,-0.1,255.16241,56.521013)"
             style="stroke-linecap:butt;stroke-linejoin:round">
            <use
               id="use98"
               xlink:href="#DejaVuSans-70"
               style="stroke-linecap:butt;stroke-linejoin:round"
               x="0"
               y="0"
               width="100%"
               height="100%" />
            <path
               style="stroke-linecap:butt;stroke-linejoin:round"
               inkscape:connector-curvature="0"
               d="m 88.082031,48.390625 q -7.21875,0 -11.421875,-5.640625 -4.203125,-5.640625 -4.203125,-15.453125 0,-9.8125 4.171875,-15.453125 4.1875,-5.640625 11.453125,-5.640625 7.1875,0 11.375,5.65625 4.203129,5.671875 4.203129,15.4375 0,9.71875 -4.203129,15.40625 -4.1875,5.6875 -11.375,5.6875 z m 0,7.609375 q 11.71875,0 18.406249,-7.625 6.70313,-7.609375 6.70313,-21.078125 0,-13.421875 -6.70313,-21.078125 -6.687499,-7.640625 -18.406249,-7.640625 -11.765625,0 -18.4375,7.640625 -6.65625,7.65625 -6.65625,21.078125 0,13.46875 6.65625,21.078125 Q 76.316406,56 88.082031,56 Z"
               id="use100" />
            <use
               id="use102"
               xlink:href="#DejaVuSans-114"
               x="118.6543"
               style="stroke-linecap:butt;stroke-linejoin:round"
               y="0"
               width="100%"
               height="100%" />
            <use
               id="use104"
               xlink:href="#DejaVuSans-109"
               x="159.75195"
               style="stroke-linecap:butt;stroke-linejoin:round"
               y="0"
               width="100%"
               height="100%" />
            <use
               id="use106"
               xlink:href="#DejaVuSans-105"
               x="257.16406"
               style="stroke-linecap:butt;stroke-linejoin:round"
               y="0"
               width="100%"
               height="100%" />
            <use
               id="use108"
               xlink:href="#DejaVuSans-99"
               x="284.94727"
               style="stroke-linecap:butt;stroke-linejoin:round"
               y="0"
               width="100%"
               height="100%" />
            <use
               id="use110"
               xlink:href="#DejaVuSans-105"
               x="339.92773"
               style="stroke-linecap:butt;stroke-linejoin:round"
               y="0"
               width="100%"
               height="100%" />
            <use
               id="use112"
               xlink:href="#DejaVuSans-100"
               x="367.71094"
               style="stroke-linecap:butt;stroke-linejoin:round"
               y="0"
               width="100%"
               height="100%" />
            <path
               style="stroke-linecap:butt;stroke-linejoin:round"
               inkscape:connector-curvature="0"
               d="m 465.46875,27.484375 q -10.89063,0 -15.09375,-2.484375 -4.20313,-2.484375 -4.20313,-8.5 0,-4.78125 3.15625,-7.59375 3.15625,-2.796875 8.5625,-2.796875 7.48438,0 12,5.296875 4.51563,5.296875 4.51563,14.078125 v 2 z m 17.92187,3.71875 V 0 h -8.98437 v 8.296875 q -3.07813,-4.96875 -7.67188,-7.34375 -4.59375,-2.375 -11.23437,-2.375 -8.39063,0 -13.35938,4.71875 -4.95312,4.71875 -4.95312,12.625 0,9.21875 6.17187,13.90625 6.1875,4.6875 18.4375,4.6875 h 12.60938 v 0.890625 q 0,6.203125 -4.07813,9.59375 -4.07812,3.390625 -11.45312,3.390625 -4.6875,0 -9.14063,-1.125 -4.4375,-1.125 -8.53125,-3.375 v 8.3125 q 4.92188,1.90625 9.5625,2.84375 Q 455.40625,56 459.79687,56 q 11.875,0 17.73438,-6.15625 5.85937,-6.140625 5.85937,-18.640625 z"
               id="use114" />
            <use
               id="use116"
               xlink:href="#DejaVuSans-101"
               x="492.4668"
               style="stroke-linecap:butt;stroke-linejoin:round"
               y="0"
               width="100%"
               height="100%" />
          </g>
        </g>
        <g
           id="text_5"
           style="stroke-linecap:butt;stroke-linejoin:round">
          <!-- Isoptera -->
          <defs
             id="defs124">
            <path
               id="DejaVuSans-73"
               d="m 9.8125,72.90625 h 9.859375 V 0 H 9.8125 Z"
               inkscape:connector-curvature="0"
               style="stroke-linecap:butt;stroke-linejoin:round" />
            <path
               id="DejaVuSans-115"
               d="m 44.28125,53.078125 v -8.5 Q 40.484375,46.53125 36.375,47.5 q -4.09375,0.984375 -8.5,0.984375 -6.6875,0 -10.03125,-2.046875 Q 14.5,44.390625 14.5,40.28125 q 0,-3.125 2.390625,-4.90625 2.390625,-1.78125 9.625,-3.390625 l 3.078125,-0.6875 Q 39.15625,29.25 43.1875,25.515625 47.21875,21.78125 47.21875,15.09375 q 0,-7.625 -6.03125,-12.078125 -6.03125,-4.4375 -16.578125,-4.4375 -4.390625,0 -9.15625,0.859375 Q 10.6875,0.296875 5.421875,2 v 9.28125 q 4.984375,-2.59375 9.8125,-3.890625 4.828125,-1.28125 9.578125,-1.28125 6.34375,0 9.75,2.171875 3.421875,2.171875 3.421875,6.125 0,3.65625 -2.46875,5.609375 -2.453125,1.953125 -10.8125,3.765625 l -3.125,0.734375 q -8.34375,1.75 -12.0625,5.390625 -3.703125,3.640625 -3.703125,9.984375 0,7.71875 5.46875,11.90625 Q 16.75,56 26.8125,56 q 4.96875,0 9.359375,-0.734375 4.40625,-0.71875 8.109375,-2.1875 z"
               inkscape:connector-curvature="0"
               style="stroke-linecap:butt;stroke-linejoin:round" />
            <path
               id="DejaVuSans-112"
               d="m 18.109375,8.203125 v -29 H 9.078125 V 54.6875 h 9.03125 v -8.296875 q 2.84375,4.875 7.15625,7.234375 Q 29.59375,56 35.59375,56 q 9.96875,0 16.1875,-7.90625 6.234375,-7.90625 6.234375,-20.796875 0,-12.890625 -6.234375,-20.8125 -6.21875,-7.90625 -16.1875,-7.90625 -6,0 -10.328125,2.375 -4.3125,2.375 -7.15625,7.25 z M 48.6875,27.296875 q 0,9.90625 -4.078125,15.546875 -4.078125,5.640625 -11.203125,5.640625 -7.140625,0 -11.21875,-5.640625 -4.078125,-5.640625 -4.078125,-15.546875 0,-9.90625 4.078125,-15.546875 4.078125,-5.640625 11.21875,-5.640625 7.125,0 11.203125,5.640625 4.078125,5.640625 4.078125,15.546875 z"
               inkscape:connector-curvature="0"
               style="stroke-linecap:butt;stroke-linejoin:round" />
          </defs>
          <g
             id="g142"
             transform="matrix(0.1,0,0,-0.1,86.718119,126.91552)"
             style="stroke-linecap:butt;stroke-linejoin:round">
            <use
               id="use126"
               xlink:href="#DejaVuSans-73"
               style="stroke-linecap:butt;stroke-linejoin:round"
               x="0"
               y="0"
               width="100%"
               height="100%" />
            <use
               id="use128"
               xlink:href="#DejaVuSans-115"
               x="29.492188"
               style="stroke-linecap:butt;stroke-linejoin:round"
               y="0"
               width="100%"
               height="100%" />
            <path
               style="stroke-linecap:butt;stroke-linejoin:round"
               inkscape:connector-curvature="0"
               d="m 112.20117,48.390625 q -7.21875,0 -11.42187,-5.640625 -4.203128,-5.640625 -4.203128,-15.453125 0,-9.8125 4.171878,-15.453125 4.1875,-5.640625 11.45312,-5.640625 7.1875,0 11.375,5.65625 4.20313,5.671875 4.20313,15.4375 0,9.71875 -4.20313,15.40625 -4.1875,5.6875 -11.375,5.6875 z m 0,7.609375 q 11.71875,0 18.40625,-7.625 6.70313,-7.609375 6.70313,-21.078125 0,-13.421875 -6.70313,-21.078125 -6.6875,-7.640625 -18.40625,-7.640625 -11.76562,0 -18.437498,7.640625 -6.65625,7.65625 -6.65625,21.078125 0,13.46875 6.65625,21.078125 Q 100.43555,56 112.20117,56 Z"
               id="use130" />
            <use
               id="use132"
               xlink:href="#DejaVuSans-112"
               x="142.77344"
               style="stroke-linecap:butt;stroke-linejoin:round"
               y="0"
               width="100%"
               height="100%" />
            <path
               style="stroke-linecap:butt;stroke-linejoin:round"
               inkscape:connector-curvature="0"
               d="M 224.5625,70.21875 V 54.6875 h 18.5 v -6.984375 h -18.5 v -29.6875 q 0,-6.6875 1.82812,-8.59375 1.82813,-1.90625 7.45313,-1.90625 h 9.21875 V 0 h -9.21875 q -10.40625,0 -14.35938,3.875 -3.95312,3.890625 -3.95312,14.140625 v 29.6875 H 208.9375 V 54.6875 h 6.59375 v 15.53125 z"
               id="use134" />
            <use
               id="use136"
               xlink:href="#DejaVuSans-101"
               x="245.45898"
               style="stroke-linecap:butt;stroke-linejoin:round"
               y="0"
               width="100%"
               height="100%" />
            <use
               id="use138"
               xlink:href="#DejaVuSans-114"
               x="306.98242"
               style="stroke-linecap:butt;stroke-linejoin:round"
               y="0"
               width="100%"
               height="100%" />
            <path
               style="stroke-linecap:butt;stroke-linejoin:round"
               inkscape:connector-curvature="0"
               d="m 382.37695,27.484375 q -10.89062,0 -15.09375,-2.484375 -4.20312,-2.484375 -4.20312,-8.5 0,-4.78125 3.15625,-7.59375 3.15625,-2.796875 8.5625,-2.796875 7.48437,0 12,5.296875 4.51562,5.296875 4.51562,14.078125 v 2 z m 17.92188,3.71875 V 0 h -8.98438 v 8.296875 q -3.07812,-4.96875 -7.67187,-7.34375 -4.59375,-2.375 -11.23438,-2.375 -8.39062,0 -13.35937,4.71875 -4.95313,4.71875 -4.95313,12.625 0,9.21875 6.17188,13.90625 6.1875,4.6875 18.4375,4.6875 h 12.60937 v 0.890625 q 0,6.203125 -4.07812,9.59375 -4.07813,3.390625 -11.45313,3.390625 -4.6875,0 -9.14062,-1.125 -4.4375,-1.125 -8.53125,-3.375 v 8.3125 q 4.92187,1.90625 9.5625,2.84375 Q 372.31445,56 376.70508,56 q 11.875,0 17.73437,-6.15625 5.85938,-6.140625 5.85938,-18.640625 z"
               id="use140" />
          </g>
        </g>
        <g
           id="text_6"
           style="stroke-linecap:butt;stroke-linejoin:round">
          <!-- Other -->
          <defs
             id="defs147">
            <path
               id="DejaVuSans-79"
               d="m 39.40625,66.21875 q -10.75,0 -17.078125,-8.015625 -6.3125,-8 -6.3125,-21.828125 0,-13.765625 6.3125,-21.78125 6.328125,-8 17.078125,-8 10.734375,0 17.015625,8 6.28125,8.015625 6.28125,21.78125 0,13.828125 -6.28125,21.828125 -6.28125,8.015625 -17.015625,8.015625 z m 0,8 q 15.328125,0 24.5,-10.28125 9.1875,-10.28125 9.1875,-27.5625 0,-17.234375 -9.1875,-27.515625 -9.171875,-10.28125 -24.5,-10.28125 -15.375,0 -24.59375,10.25 Q 5.609375,19.09375 5.609375,36.375 q 0,17.28125 9.203125,27.5625 9.21875,10.28125 24.59375,10.28125 z"
               inkscape:connector-curvature="0"
               style="stroke-linecap:butt;stroke-linejoin:round" />
            <path
               id="DejaVuSans-104"
               d="M 54.890625,33.015625 V 0 H 45.90625 v 32.71875 q 0,7.765625 -3.03125,11.609375 -3.03125,3.859375 -9.078125,3.859375 -7.28125,0 -11.484375,-4.640625 -4.203125,-4.625 -4.203125,-12.640625 V 0 h -9.03125 v 75.984375 h 9.03125 V 46.1875 q 3.234375,4.9375 7.59375,7.375 4.375,2.4375 10.09375,2.4375 9.421875,0 14.25,-5.828125 4.84375,-5.828125 4.84375,-17.15625 z"
               inkscape:connector-curvature="0"
               style="stroke-linecap:butt;stroke-linejoin:round" />
          </defs>
          <g
             id="g159"
             transform="matrix(0.1,0,0,-0.1,281.70055,220.31778)"
             style="stroke-linecap:butt;stroke-linejoin:round">
            <use
               id="use149"
               xlink:href="#DejaVuSans-79"
               style="stroke-linecap:butt;stroke-linejoin:round"
               x="0"
               y="0"
               width="100%"
               height="100%" />
            <path
               style="stroke-linecap:butt;stroke-linejoin:round"
               inkscape:connector-curvature="0"
               d="M 97.023437,70.21875 V 54.6875 H 115.52344 V 47.703125 H 97.023437 v -29.6875 q 0,-6.6875 1.828125,-8.59375 1.828128,-1.90625 7.453128,-1.90625 h 9.21875 V 0 h -9.21875 Q 95.898437,0 91.945312,3.875 87.992187,7.765625 87.992187,18.015625 v 29.6875 h -6.59375 V 54.6875 h 6.59375 v 15.53125 z"
               id="use151" />
            <use
               id="use153"
               xlink:href="#DejaVuSans-104"
               x="117.91992"
               style="stroke-linecap:butt;stroke-linejoin:round"
               y="0"
               width="100%"
               height="100%" />
            <use
               id="use155"
               xlink:href="#DejaVuSans-101"
               x="181.29883"
               style="stroke-linecap:butt;stroke-linejoin:round"
               y="0"
               width="100%"
               height="100%" />
            <use
               id="use157"
               xlink:href="#DejaVuSans-114"
               x="242.82227"
               style="stroke-linecap:butt;stroke-linejoin:round"
               y="0"
               width="100%"
               height="100%" />
          </g>
        </g>
      </g>
    </g>
    <g
       id="g491"
       transform="translate(429.82293,7.5186454)"
       style="stroke-linecap:butt;stroke-linejoin:round">
      <g
         style="stroke-linecap:butt;stroke-linejoin:round"
         id="patch_2-3"
         transform="translate(-397.62022,40.263257)">
        <path
           id="path9-6"
           style="fill:#1f77b4;stroke-linecap:butt;stroke-linejoin:round"
           d="m 308.376,143.28 c 0,-11.55781 -2.30379,-23.00054 -6.77642,-33.65786 C 297.12695,98.964809 290.57456,89.305122 282.32624,81.208933 L 221.4,143.28 Z"
           inkscape:connector-curvature="0" />
      </g>
      <g
         style="stroke-linecap:butt;stroke-linejoin:round"
         id="patch_3-7"
         transform="translate(-397.62022,40.263257)">
        <path
           id="path12-5"
           style="fill:#ff7f0e;stroke-linecap:butt;stroke-linejoin:round"
           d="m 282.32624,81.208933 c -0.40975,-0.402202 -0.82349,-0.800336 -1.24113,-1.194345 -0.41765,-0.394009 -0.83918,-0.783872 -1.26455,-1.169533 L 221.4,143.28 Z"
           inkscape:connector-curvature="0" />
      </g>
      <g
         style="stroke-linecap:butt;stroke-linejoin:round"
         id="patch_4-3"
         transform="translate(-397.62022,40.263257)">
        <path
           id="path15-5"
           style="fill:#2ca02c;stroke-linecap:butt;stroke-linejoin:round"
           d="m 279.82056,78.845055 c -6.51888,-5.910406 -13.8971,-10.797462 -21.88234,-14.494032 -7.98525,-3.69657 -16.48542,-6.160026 -25.20982,-7.30612 -8.7244,-1.146094 -17.57243,-0.961608 -26.24147,0.547147 -8.66905,1.508755 -17.05915,4.324381 -24.88337,8.350586 -7.82422,4.026204 -14.99233,9.216558 -21.25918,15.393553 -6.26685,6.176994 -11.56018,13.2694 -15.69896,21.034661 -4.13878,7.76526 -7.07528,16.11382 -8.70907,24.76017 -1.63379,8.64636 -1.94603,17.49079 -0.92605,26.23084 1.01998,8.74004 3.36042,17.2749 6.94129,25.3127 3.58086,8.03779 8.36086,15.48582 14.17651,22.08938 5.81564,6.60355 12.59988,12.28648 20.12069,16.85443 7.52081,4.56794 15.69147,7.96823 24.23253,10.08457 8.54107,2.11635 17.35406,2.92434 26.13756,2.39634 8.7835,-0.52799 17.43624,-2.38588 25.66228,-5.51013 8.22604,-3.12424 15.93054,-7.47882 22.84999,-12.9148 6.91946,-5.43598 12.97408,-11.89067 17.9568,-19.14334 L 221.4,143.28 Z"
           inkscape:connector-curvature="0" />
      </g>
      <g
         style="stroke-linecap:butt;stroke-linejoin:round"
         id="patch_5-6"
         transform="translate(-397.62022,40.263257)">
        <path
           id="path18-2"
           style="fill:#d62728;stroke-linecap:butt;stroke-linejoin:round"
           d="m 293.08795,192.53101 c 0.20235,-0.29453 0.40289,-0.59032 0.60159,-0.88732 0.19871,-0.29701 0.39558,-0.59524 0.59061,-0.89467 L 221.4,143.28 Z"
           inkscape:connector-curvature="0" />
      </g>
      <g
         style="stroke-linecap:butt;stroke-linejoin:round"
         id="patch_6-9"
         transform="translate(-397.62022,40.263257)">
        <path
           id="path21-1"
           style="fill:#9467bd;stroke-linecap:butt;stroke-linejoin:round"
           d="m 294.28015,190.74902 c 4.5753,-7.02455 8.11107,-14.67383 10.49745,-22.71018 2.38638,-8.03635 3.5984,-16.37566 3.5984,-24.75884 H 221.4 Z"
           inkscape:connector-curvature="0" />
      </g>
      <g
         style="stroke-linecap:butt;stroke-linejoin:round"
         id="text_2-2"
         transform="translate(-397.62022,40.263257)">
        <!-- Chelicerata -->
        <defs
           id="defs51">
          <path
             style="stroke-linecap:butt;stroke-linejoin:round"
             id="path319"
             d="M 64.40625,67.28125 V 56.890625 q -4.984375,4.640625 -10.625,6.921875 -5.640625,2.296875 -11.984375,2.296875 -12.5,0 -19.140625,-7.640625 -6.640625,-7.640625 -6.640625,-22.09375 0,-14.40625 6.640625,-22.046875 Q 29.296875,6.6875 41.796875,6.6875 q 6.34375,0 11.984375,2.296875 5.640625,2.296875 10.625,6.9375 V 5.609375 Q 59.234375,2.09375 53.4375,0.328125 q -5.78125,-1.75 -12.21875,-1.75 -16.5625,0 -26.09375,10.125 Q 5.609375,18.84375 5.609375,36.375 q 0,17.578125 9.515625,27.703125 9.53125,10.140625 26.09375,10.140625 6.53125,0 12.3125,-1.734375 5.796875,-1.734375 10.875,-5.203125 z"
             inkscape:connector-curvature="0" />
          <path
             style="stroke-linecap:butt;stroke-linejoin:round"
             id="path321"
             d="M 54.890625,33.015625 V 0 H 45.90625 v 32.71875 q 0,7.765625 -3.03125,11.609375 -3.03125,3.859375 -9.078125,3.859375 -7.28125,0 -11.484375,-4.640625 -4.203125,-4.625 -4.203125,-12.640625 V 0 h -9.03125 v 75.984375 h 9.03125 V 46.1875 q 3.234375,4.9375 7.59375,7.375 4.375,2.4375 10.09375,2.4375 9.421875,0 14.25,-5.828125 4.84375,-5.828125 4.84375,-17.15625 z"
             inkscape:connector-curvature="0" />
          <path
             style="stroke-linecap:butt;stroke-linejoin:round"
             id="path323"
             d="M 9.421875,75.984375 H 18.40625 V 0 H 9.421875 Z"
             inkscape:connector-curvature="0" />
          <path
             style="stroke-linecap:butt;stroke-linejoin:round"
             id="path325"
             d="M 9.421875,54.6875 H 18.40625 V 0 H 9.421875 Z m 0,21.296875 H 18.40625 V 64.59375 H 9.421875 Z"
             inkscape:connector-curvature="0" />
          <path
             style="stroke-linecap:butt;stroke-linejoin:round"
             id="path327"
             d="M 48.78125,52.59375 V 44.1875 q -3.8125,2.109375 -7.640625,3.15625 -3.828125,1.046875 -7.734375,1.046875 -8.75,0 -13.59375,-5.546875 -4.828125,-5.53125 -4.828125,-15.546875 0,-10.015625 4.828125,-15.5625 4.84375,-5.53125 13.59375,-5.53125 3.90625,0 7.734375,1.046875 3.828125,1.046875 7.640625,3.15625 v -8.3125 q -3.765625,-1.75 -7.796875,-2.625 -4.015625,-0.890625 -8.5625,-0.890625 -12.359375,0 -19.640625,7.765625 -7.265625,7.765625 -7.265625,20.953125 0,13.375 7.34375,21.03125 Q 20.21875,56 33.015625,56 q 4.140625,0 8.09375,-0.859375 3.953125,-0.84375 7.671875,-2.546875 z"
             inkscape:connector-curvature="0" />
          <path
             style="stroke-linecap:butt;stroke-linejoin:round"
             id="path329"
             d="m 41.109375,46.296875 q -1.515625,0.875 -3.296875,1.28125 Q 36.03125,48 33.890625,48 26.265625,48 22.1875,43.046875 18.109375,38.09375 18.109375,28.8125 V 0 h -9.03125 v 54.6875 h 9.03125 v -8.5 q 2.84375,4.984375 7.375,7.390625 Q 30.03125,56 36.53125,56 q 0.921875,0 2.046875,-0.125 1.125,-0.109375 2.484375,-0.359375 z"
             inkscape:connector-curvature="0" />
          <path
             style="stroke-linecap:butt;stroke-linejoin:round"
             id="path331"
             d="m 34.28125,27.484375 q -10.890625,0 -15.09375,-2.484375 -4.203125,-2.484375 -4.203125,-8.5 0,-4.78125 3.15625,-7.59375 3.15625,-2.796875 8.5625,-2.796875 7.484375,0 12,5.296875 4.515625,5.296875 4.515625,14.078125 v 2 z m 17.921875,3.71875 V 0 H 43.21875 v 8.296875 q -3.078125,-4.96875 -7.671875,-7.34375 -4.59375,-2.375 -11.234375,-2.375 -8.390625,0 -13.359375,4.71875 Q 6,8.015625 6,15.921875 q 0,9.21875 6.171875,13.90625 6.1875,4.6875 18.4375,4.6875 H 43.21875 v 0.890625 q 0,6.203125 -4.078125,9.59375 -4.078125,3.390625 -11.453125,3.390625 -4.6875,0 -9.140625,-1.125 -4.4375,-1.125 -8.53125,-3.375 v 8.3125 q 4.921875,1.90625 9.5625,2.84375 Q 24.21875,56 28.609375,56 q 11.875,0 17.734375,-6.15625 5.859375,-6.140625 5.859375,-18.640625 z"
             inkscape:connector-curvature="0" />
          <path
             style="stroke-linecap:butt;stroke-linejoin:round"
             id="path333"
             d="M 18.3125,70.21875 V 54.6875 h 18.5 v -6.984375 h -18.5 v -29.6875 q 0,-6.6875 1.828125,-8.59375 1.828125,-1.90625 7.453125,-1.90625 H 36.8125 V 0 H 27.59375 Q 17.1875,0 13.234375,3.875 9.28125,7.765625 9.28125,18.015625 v 29.6875 H 2.6875 V 54.6875 h 6.59375 v 15.53125 z"
             inkscape:connector-curvature="0" />
        </defs>
        <g
           style="stroke-linecap:butt;stroke-linejoin:round"
           id="g75"
           transform="matrix(0.1,0,0,-0.1,309.61954,109.01573)">
          <use
             style="stroke-linecap:butt;stroke-linejoin:round"
             id="use53"
             xlink:href="#DejaVuSans-67-7"
             x="0"
             y="0"
             width="100%"
             height="100%" />
          <use
             style="stroke-linecap:butt;stroke-linejoin:round"
             id="use55"
             xlink:href="#DejaVuSans-104-0"
             x="69.824219"
             y="0"
             width="100%"
             height="100%" />
          <path
             style="stroke-linecap:butt;stroke-linejoin:round"
             inkscape:connector-curvature="0"
             d="m 189.40625,29.59375 v -4.390625 h -41.3125 q 0.59375,-9.28125 5.59375,-14.140625 5,-4.859375 13.9375,-4.859375 5.17187,0 10.03125,1.265625 4.85937,1.265625 9.65625,3.8125 v -8.5 q -4.84375,-2.046875 -9.92188,-3.125 -5.07812,-1.078125 -10.29687,-1.078125 -13.09375,0 -20.73438,7.609375 -7.64062,7.625 -7.64062,20.625 0,13.421875 7.25,21.296875 Q 153.21875,56 165.53125,56 q 11.03125,0 17.45312,-7.109375 6.42188,-7.09375 6.42188,-19.296875 z m -8.98438,2.640625 q -0.0937,7.359375 -4.125,11.75 -4.03125,4.40625 -10.67187,4.40625 -7.51563,0 -12.03125,-4.25 -4.51563,-4.25 -5.20313,-11.96875 z"
             id="use57" />
          <use
             style="stroke-linecap:butt;stroke-linejoin:round"
             id="use59"
             xlink:href="#DejaVuSans-108"
             x="194.72656"
             y="0"
             width="100%"
             height="100%" />
          <use
             style="stroke-linecap:butt;stroke-linejoin:round"
             id="use61"
             xlink:href="#DejaVuSans-105-9"
             x="222.50977"
             y="0"
             width="100%"
             height="100%" />
          <use
             style="stroke-linecap:butt;stroke-linejoin:round"
             id="use63"
             xlink:href="#DejaVuSans-99-3"
             x="250.29297"
             y="0"
             width="100%"
             height="100%" />
          <path
             style="stroke-linecap:butt;stroke-linejoin:round"
             inkscape:connector-curvature="0"
             d="m 361.47656,29.59375 v -4.390625 h -41.3125 q 0.59375,-9.28125 5.59375,-14.140625 5,-4.859375 13.9375,-4.859375 5.17188,0 10.03125,1.265625 4.85938,1.265625 9.65625,3.8125 v -8.5 q -4.84375,-2.046875 -9.92187,-3.125 -5.07813,-1.078125 -10.29688,-1.078125 -13.09375,0 -20.73437,7.609375 -7.64063,7.625 -7.64063,20.625 0,13.421875 7.25,21.296875 Q 325.28906,56 337.60156,56 q 11.03125,0 17.45313,-7.109375 6.42187,-7.09375 6.42187,-19.296875 z m -8.98437,2.640625 q -0.0937,7.359375 -4.125,11.75 -4.03125,4.40625 -10.67188,4.40625 -7.51562,0 -12.03125,-4.25 -4.51562,-4.25 -5.20312,-11.96875 z"
             id="use65" />
          <use
             style="stroke-linecap:butt;stroke-linejoin:round"
             id="use67"
             xlink:href="#DejaVuSans-114-6"
             x="366.79688"
             y="0"
             width="100%"
             height="100%" />
          <use
             style="stroke-linecap:butt;stroke-linejoin:round"
             id="use69"
             xlink:href="#DejaVuSans-97"
             x="407.91016"
             y="0"
             width="100%"
             height="100%" />
          <use
             style="stroke-linecap:butt;stroke-linejoin:round"
             id="use71-0"
             xlink:href="#DejaVuSans-116"
             x="469.18945"
             y="0"
             width="100%"
             height="100%" />
          <use
             style="stroke-linecap:butt;stroke-linejoin:round"
             id="use73-6"
             xlink:href="#DejaVuSans-97"
             x="508.39844"
             y="0"
             width="100%"
             height="100%" />
        </g>
      </g>
      <g
         style="stroke-linecap:butt;stroke-linejoin:round"
         id="text_3-2"
         transform="translate(-397.62022,40.263257)">
        <!-- Crustacea -->
        <defs
           id="defs80">
          <path
             style="stroke-linecap:butt;stroke-linejoin:round"
             id="path349"
             d="M 8.5,21.578125 V 54.6875 h 8.984375 V 21.921875 q 0,-7.765625 3.015625,-11.65625 3.03125,-3.875 9.09375,-3.875 7.265625,0 11.484375,4.640625 4.234375,4.640625 4.234375,12.65625 v 31 h 8.984375 V 0 H 45.3125 V 8.40625 Q 42.046875,3.421875 37.71875,1 33.40625,-1.421875 27.6875,-1.421875 18.265625,-1.421875 13.375,4.4375 8.5,10.296875 8.5,21.578125 Z M 31.109375,56 Z"
             inkscape:connector-curvature="0" />
          <path
             style="stroke-linecap:butt;stroke-linejoin:round"
             id="path351"
             d="m 44.28125,53.078125 v -8.5 Q 40.484375,46.53125 36.375,47.5 q -4.09375,0.984375 -8.5,0.984375 -6.6875,0 -10.03125,-2.046875 Q 14.5,44.390625 14.5,40.28125 q 0,-3.125 2.390625,-4.90625 2.390625,-1.78125 9.625,-3.390625 l 3.078125,-0.6875 Q 39.15625,29.25 43.1875,25.515625 47.21875,21.78125 47.21875,15.09375 q 0,-7.625 -6.03125,-12.078125 -6.03125,-4.4375 -16.578125,-4.4375 -4.390625,0 -9.15625,0.859375 Q 10.6875,0.296875 5.421875,2 v 9.28125 q 4.984375,-2.59375 9.8125,-3.890625 4.828125,-1.28125 9.578125,-1.28125 6.34375,0 9.75,2.171875 3.421875,2.171875 3.421875,6.125 0,3.65625 -2.46875,5.609375 -2.453125,1.953125 -10.8125,3.765625 l -3.125,0.734375 q -8.34375,1.75 -12.0625,5.390625 -3.703125,3.640625 -3.703125,9.984375 0,7.71875 5.46875,11.90625 Q 16.75,56 26.8125,56 q 4.96875,0 9.359375,-0.734375 4.40625,-0.71875 8.109375,-2.1875 z"
             inkscape:connector-curvature="0" />
        </defs>
        <g
           style="stroke-linecap:butt;stroke-linejoin:round"
           id="g100"
           transform="matrix(0.1,0,0,-0.1,287.05362,76.447422)">
          <use
             style="stroke-linecap:butt;stroke-linejoin:round"
             id="use82"
             xlink:href="#DejaVuSans-67-7"
             x="0"
             y="0"
             width="100%"
             height="100%" />
          <use
             style="stroke-linecap:butt;stroke-linejoin:round"
             id="use84"
             xlink:href="#DejaVuSans-114-6"
             x="69.824219"
             y="0"
             width="100%"
             height="100%" />
          <use
             style="stroke-linecap:butt;stroke-linejoin:round"
             id="use86"
             xlink:href="#DejaVuSans-117"
             x="110.9375"
             y="0"
             width="100%"
             height="100%" />
          <use
             style="stroke-linecap:butt;stroke-linejoin:round"
             id="use88"
             xlink:href="#DejaVuSans-115-6"
             x="174.31641"
             y="0"
             width="100%"
             height="100%" />
          <use
             style="stroke-linecap:butt;stroke-linejoin:round"
             id="use90"
             xlink:href="#DejaVuSans-116"
             x="226.41602"
             y="0"
             width="100%"
             height="100%" />
          <use
             style="stroke-linecap:butt;stroke-linejoin:round"
             id="use92"
             xlink:href="#DejaVuSans-97"
             x="265.625"
             y="0"
             width="100%"
             height="100%" />
          <use
             style="stroke-linecap:butt;stroke-linejoin:round"
             id="use94"
             xlink:href="#DejaVuSans-99-3"
             x="326.9043"
             y="0"
             width="100%"
             height="100%" />
          <path
             style="stroke-linecap:butt;stroke-linejoin:round"
             inkscape:connector-curvature="0"
             d="m 438.08789,29.59375 v -4.390625 h -41.3125 q 0.59375,-9.28125 5.59375,-14.140625 5,-4.859375 13.9375,-4.859375 5.17188,0 10.03125,1.265625 4.85938,1.265625 9.65625,3.8125 v -8.5 q -4.84375,-2.046875 -9.92187,-3.125 -5.07813,-1.078125 -10.29688,-1.078125 -13.09375,0 -20.73437,7.609375 -7.64063,7.625 -7.64063,20.625 0,13.421875 7.25,21.296875 Q 401.90039,56 414.21289,56 q 11.03125,0 17.45313,-7.109375 6.42187,-7.09375 6.42187,-19.296875 z m -8.98437,2.640625 q -0.0937,7.359375 -4.125,11.75 -4.03125,4.40625 -10.67188,4.40625 -7.51562,0 -12.03125,-4.25 -4.51562,-4.25 -5.20312,-11.96875 z"
             id="use96" />
          <use
             style="stroke-linecap:butt;stroke-linejoin:round"
             id="use98-1"
             xlink:href="#DejaVuSans-97"
             x="443.4082"
             y="0"
             width="100%"
             height="100%" />
        </g>
      </g>
      <g
         style="stroke-linecap:butt;stroke-linejoin:round"
         id="text_4-8"
         transform="translate(-397.62022,40.263257)">
        <!-- Hexapoda -->
        <defs
           id="defs107">
          <path
             style="stroke-linecap:butt;stroke-linejoin:round"
             id="path365"
             d="m 9.8125,72.90625 h 9.859375 V 43.015625 h 35.84375 V 72.90625 H 65.375 V 0 H 55.515625 V 34.71875 H 19.671875 V 0 H 9.8125 Z"
             inkscape:connector-curvature="0" />
          <path
             style="stroke-linecap:butt;stroke-linejoin:round"
             id="path367"
             d="M 54.890625,54.6875 35.109375,28.078125 55.90625,0 H 45.3125 L 29.390625,21.484375 13.484375,0 H 2.875 L 24.125,28.609375 4.6875,54.6875 h 10.59375 l 14.5,-19.484375 14.5,19.484375 z"
             inkscape:connector-curvature="0" />
          <path
             style="stroke-linecap:butt;stroke-linejoin:round"
             id="path369"
             d="m 18.109375,8.203125 v -29 H 9.078125 V 54.6875 h 9.03125 v -8.296875 q 2.84375,4.875 7.15625,7.234375 Q 29.59375,56 35.59375,56 q 9.96875,0 16.1875,-7.90625 6.234375,-7.90625 6.234375,-20.796875 0,-12.890625 -6.234375,-20.8125 -6.21875,-7.90625 -16.1875,-7.90625 -6,0 -10.328125,2.375 -4.3125,2.375 -7.15625,7.25 z M 48.6875,27.296875 q 0,9.90625 -4.078125,15.546875 -4.078125,5.640625 -11.203125,5.640625 -7.140625,0 -11.21875,-5.640625 -4.078125,-5.640625 -4.078125,-15.546875 0,-9.90625 4.078125,-15.546875 4.078125,-5.640625 11.21875,-5.640625 7.125,0 11.203125,5.640625 4.078125,5.640625 4.078125,15.546875 z"
             inkscape:connector-curvature="0" />
          <path
             style="stroke-linecap:butt;stroke-linejoin:round"
             id="path371"
             d="m 45.40625,46.390625 v 29.59375 h 8.984375 V 0 H 45.40625 v 8.203125 q -2.828125,-4.875 -7.15625,-7.25 -4.3125,-2.375 -10.375,-2.375 -9.90625,0 -16.140625,7.90625 -6.21875,7.921875 -6.21875,20.8125 0,12.890625 6.21875,20.796875 Q 17.96875,56 27.875,56 q 6.0625,0 10.375,-2.375 4.328125,-2.359375 7.15625,-7.234375 z M 14.796875,27.296875 q 0,-9.90625 4.078125,-15.546875 4.078125,-5.640625 11.203125,-5.640625 7.125,0 11.21875,5.640625 4.109375,5.640625 4.109375,15.546875 0,9.90625 -4.109375,15.546875 -4.09375,5.640625 -11.21875,5.640625 -7.125,0 -11.203125,-5.640625 -4.078125,-5.640625 -4.078125,-15.546875 z"
             inkscape:connector-curvature="0" />
        </defs>
        <g
           style="stroke-linecap:butt;stroke-linejoin:round"
           id="g125"
           transform="matrix(0.1,0,0,-0.1,75.708827,157.12942)">
          <use
             style="stroke-linecap:butt;stroke-linejoin:round"
             id="use109"
             xlink:href="#DejaVuSans-72"
             x="0"
             y="0"
             width="100%"
             height="100%" />
          <path
             style="stroke-linecap:butt;stroke-linejoin:round"
             inkscape:connector-curvature="0"
             d="M 131.39844,29.59375 V 25.203125 H 90.085937 q 0.59375,-9.28125 5.59375,-14.140625 5.000003,-4.859375 13.937503,-4.859375 5.17187,0 10.03125,1.265625 4.85937,1.265625 9.65625,3.8125 v -8.5 q -4.84375,-2.046875 -9.92188,-3.125 -5.07812,-1.078125 -10.29687,-1.078125 -13.093753,0 -20.734378,7.609375 -7.640625,7.625 -7.640625,20.625 0,13.421875 7.25,21.296875 Q 95.210937,56 107.52344,56 q 11.03125,0 17.45312,-7.109375 6.42188,-7.09375 6.42188,-19.296875 z m -8.98438,2.640625 q -0.0937,7.359375 -4.125,11.75 -4.03125,4.40625 -10.67187,4.40625 -7.51563,0 -12.031253,-4.25 -4.515625,-4.25 -5.203125,-11.96875 z"
             id="use111" />
          <use
             style="stroke-linecap:butt;stroke-linejoin:round"
             id="use113"
             xlink:href="#DejaVuSans-120"
             x="136.70312"
             y="0"
             width="100%"
             height="100%" />
          <use
             style="stroke-linecap:butt;stroke-linejoin:round"
             id="use115"
             xlink:href="#DejaVuSans-97"
             x="195.88281"
             y="0"
             width="100%"
             height="100%" />
          <use
             style="stroke-linecap:butt;stroke-linejoin:round"
             id="use117"
             xlink:href="#DejaVuSans-112-7"
             x="257.16211"
             y="0"
             width="100%"
             height="100%" />
          <path
             style="stroke-linecap:butt;stroke-linejoin:round"
             inkscape:connector-curvature="0"
             d="m 351.24805,48.390625 q -7.21875,0 -11.42188,-5.640625 -4.20312,-5.640625 -4.20312,-15.453125 0,-9.8125 4.17187,-15.453125 4.1875,-5.640625 11.45313,-5.640625 7.1875,0 11.375,5.65625 4.20312,5.671875 4.20312,15.4375 0,9.71875 -4.20312,15.40625 -4.1875,5.6875 -11.375,5.6875 z m 0,7.609375 q 11.71875,0 18.40625,-7.625 6.70312,-7.609375 6.70312,-21.078125 0,-13.421875 -6.70312,-21.078125 -6.6875,-7.640625 -18.40625,-7.640625 -11.76563,0 -18.4375,7.640625 -6.65625,7.65625 -6.65625,21.078125 0,13.46875 6.65625,21.078125 6.67187,7.625 18.4375,7.625 z"
             id="use119" />
          <use
             style="stroke-linecap:butt;stroke-linejoin:round"
             id="use121"
             xlink:href="#DejaVuSans-100-9"
             x="381.82031"
             y="0"
             width="100%"
             height="100%" />
          <use
             style="stroke-linecap:butt;stroke-linejoin:round"
             id="use123"
             xlink:href="#DejaVuSans-97"
             x="445.29688"
             y="0"
             width="100%"
             height="100%" />
        </g>
      </g>
      <g
         style="stroke-linecap:butt;stroke-linejoin:round"
         id="text_5-2"
         transform="translate(-397.62022,40.263257)">
        <!-- Mixed -->
        <defs
           id="defs129">
          <path
             style="stroke-linecap:butt;stroke-linejoin:round"
             id="path384"
             d="M 9.8125,72.90625 H 24.515625 L 43.109375,23.296875 61.8125,72.90625 H 76.515625 V 0 h -9.625 v 64.015625 l -18.796875,-50 H 38.1875 l -18.796875,50 V 0 H 9.8125 Z"
             inkscape:connector-curvature="0" />
        </defs>
        <g
           style="stroke-linecap:butt;stroke-linejoin:round"
           id="g141"
           transform="matrix(0.1,0,0,-0.1,300.9185,199.23943)">
          <use
             style="stroke-linecap:butt;stroke-linejoin:round"
             id="use131"
             xlink:href="#DejaVuSans-77"
             x="0"
             y="0"
             width="100%"
             height="100%" />
          <use
             style="stroke-linecap:butt;stroke-linejoin:round"
             id="use133"
             xlink:href="#DejaVuSans-105-9"
             x="86.279297"
             y="0"
             width="100%"
             height="100%" />
          <use
             style="stroke-linecap:butt;stroke-linejoin:round"
             id="use135"
             xlink:href="#DejaVuSans-120"
             x="114.0625"
             y="0"
             width="100%"
             height="100%" />
          <path
             style="stroke-linecap:butt;stroke-linejoin:round"
             inkscape:connector-curvature="0"
             d="m 229.39844,29.59375 v -4.390625 h -41.3125 q 0.59375,-9.28125 5.59375,-14.140625 5,-4.859375 13.9375,-4.859375 5.17187,0 10.03125,1.265625 4.85937,1.265625 9.65625,3.8125 v -8.5 q -4.84375,-2.046875 -9.92188,-3.125 -5.07812,-1.078125 -10.29687,-1.078125 -13.09375,0 -20.73438,7.609375 -7.64062,7.625 -7.64062,20.625 0,13.421875 7.25,21.296875 Q 193.21094,56 205.52344,56 q 11.03125,0 17.45312,-7.109375 6.42188,-7.09375 6.42188,-19.296875 z m -8.98438,2.640625 q -0.0937,7.359375 -4.125,11.75 -4.03125,4.40625 -10.67187,4.40625 -7.51563,0 -12.03125,-4.25 -4.51563,-4.25 -5.20313,-11.96875 z"
             id="use137" />
          <use
             style="stroke-linecap:butt;stroke-linejoin:round"
             id="use139"
             xlink:href="#DejaVuSans-100-9"
             x="234.71875"
             y="0"
             width="100%"
             height="100%" />
        </g>
      </g>
      <g
         style="stroke-linecap:butt;stroke-linejoin:round"
         id="text_6-0"
         transform="translate(-397.62022,40.263257)">
        <!-- Myriapoda -->
        <defs
           id="defs145">
          <path
             style="stroke-linecap:butt;stroke-linejoin:round"
             id="path394"
             d="M 32.171875,-5.078125 Q 28.375,-14.84375 24.75,-17.8125 q -3.609375,-2.984375 -9.65625,-2.984375 h -7.1875 v 7.515625 h 5.28125 q 3.703125,0 5.75,1.765625 2.0625,1.75 4.546875,8.296875 L 25.09375,0.875 2.984375,54.6875 H 12.5 L 29.59375,11.921875 46.6875,54.6875 h 9.515625 z"
             inkscape:connector-curvature="0" />
        </defs>
        <g
           style="stroke-linecap:butt;stroke-linejoin:round"
           id="g165"
           transform="matrix(0.1,0,0,-0.1,313.11536,173.2741)">
          <use
             style="stroke-linecap:butt;stroke-linejoin:round"
             id="use147"
             xlink:href="#DejaVuSans-77"
             x="0"
             y="0"
             width="100%"
             height="100%" />
          <use
             style="stroke-linecap:butt;stroke-linejoin:round"
             id="use149-2"
             xlink:href="#DejaVuSans-121"
             x="86.279297"
             y="0"
             width="100%"
             height="100%" />
          <use
             style="stroke-linecap:butt;stroke-linejoin:round"
             id="use151-3"
             xlink:href="#DejaVuSans-114-6"
             x="145.45898"
             y="0"
             width="100%"
             height="100%" />
          <use
             style="stroke-linecap:butt;stroke-linejoin:round"
             id="use153-7"
             xlink:href="#DejaVuSans-105-9"
             x="186.57227"
             y="0"
             width="100%"
             height="100%" />
          <use
             style="stroke-linecap:butt;stroke-linejoin:round"
             id="use155-5"
             xlink:href="#DejaVuSans-97"
             x="214.35547"
             y="0"
             width="100%"
             height="100%" />
          <use
             style="stroke-linecap:butt;stroke-linejoin:round"
             id="use157-9"
             xlink:href="#DejaVuSans-112-7"
             x="275.63477"
             y="0"
             width="100%"
             height="100%" />
          <path
             style="stroke-linecap:butt;stroke-linejoin:round"
             inkscape:connector-curvature="0"
             d="m 369.7207,48.390625 q -7.21875,0 -11.42187,-5.640625 -4.20313,-5.640625 -4.20313,-15.453125 0,-9.8125 4.17188,-15.453125 4.1875,-5.640625 11.45312,-5.640625 7.1875,0 11.375,5.65625 4.20313,5.671875 4.20313,15.4375 0,9.71875 -4.20313,15.40625 -4.1875,5.6875 -11.375,5.6875 z m 0,7.609375 q 11.71875,0 18.40625,-7.625 6.70313,-7.609375 6.70313,-21.078125 0,-13.421875 -6.70313,-21.078125 -6.6875,-7.640625 -18.40625,-7.640625 -11.76562,0 -18.4375,7.640625 -6.65625,7.65625 -6.65625,21.078125 0,13.46875 6.65625,21.078125 Q 357.95508,56 369.7207,56 Z"
             id="use159" />
          <use
             style="stroke-linecap:butt;stroke-linejoin:round"
             id="use161"
             xlink:href="#DejaVuSans-100-9"
             x="400.29297"
             y="0"
             width="100%"
             height="100%" />
          <use
             style="stroke-linecap:butt;stroke-linejoin:round"
             id="use163"
             xlink:href="#DejaVuSans-97"
             x="463.76953"
             y="0"
             width="100%"
             height="100%" />
        </g>
      </g>
    </g>
    <text
       xml:space="preserve"
       style="font-style:normal;font-weight:normal;font-size:30px;line-height:1.25;font-family:sans-serif;letter-spacing:0px;word-spacing:0px;fill:#000000;fill-opacity:1;stroke:none;stroke-width:0.75;stroke-linecap:butt;stroke-linejoin:round"
       x="-172.92419"
       y="122.09811"
       id="text577"><tspan
         sodipodi:role="line"
         id="tspan575"
         style="font-size:15px;stroke-width:0.75;stroke-linecap:butt;stroke-linejoin:round"
         x="-172.92419"
         y="122.09811">A</tspan></text>
    <text
       id="text581"
       y="122.09811"
       x="157.07581"
       style="font-style:normal;font-weight:normal;font-size:30px;line-height:1.25;font-family:sans-serif;letter-spacing:0px;word-spacing:0px;fill:#000000;fill-opacity:1;stroke:none;stroke-width:0.75;stroke-linecap:butt;stroke-linejoin:round"
       xml:space="preserve"><tspan
         y="122.09811"
         x="157.07581"
         style="font-size:15px;stroke-width:0.75;stroke-linecap:butt;stroke-linejoin:round"
         id="tspan579"
         sodipodi:role="line">B</tspan></text>
  </g>
</svg>
